<mxfile host="app.diagrams.net" modified="2020-11-27T07:42:22.812Z" agent="5.0 (Windows NT 10.0; Win64; x64) AppleWebKit/537.36 (KHTML, like Gecko) Chrome/87.0.4280.66 Safari/537.36" etag="5QrWkSZ-vuElGNpUD3ki" version="13.10.1" type="github" pages="2">
  <diagram name="Page-1" id="e7e014a7-5840-1c2e-5031-d8a46d1fe8dd">
    <mxGraphModel grid="1" gridSize="10" guides="1" tooltips="1" connect="1" arrows="1" page="1" fold="1" pageScale="1" pageWidth="1169" pageHeight="826" background="#ffffff" math="0" shadow="0">
      <root>
        <mxCell id="0" />
        <mxCell id="1" parent="0" />
        <mxCell id="2" value="User" style="swimlane;whiteSpace=wrap" parent="1" vertex="1">
          <mxGeometry x="80" y="72" width="364.5" height="888" as="geometry" />
        </mxCell>
        <mxCell id="ppK0j8vu8VuufxJVlu7I-67" style="edgeStyle=orthogonalEdgeStyle;rounded=0;orthogonalLoop=1;jettySize=auto;html=1;exitX=0.5;exitY=1;exitDx=0;exitDy=0;entryX=0.5;entryY=0;entryDx=0;entryDy=0;strokeColor=#000000;fillColor=#000000;" parent="2" source="5" target="ppK0j8vu8VuufxJVlu7I-57" edge="1">
          <mxGeometry relative="1" as="geometry" />
        </mxCell>
        <mxCell id="5" value="" style="ellipse;shape=startState;fillColor=#000000;" parent="2" vertex="1">
          <mxGeometry x="120" y="42" width="30" height="30" as="geometry" />
        </mxCell>
        <mxCell id="cK3ykNUaYROa_rBBFCjn-56" style="edgeStyle=orthogonalEdgeStyle;rounded=0;orthogonalLoop=1;jettySize=auto;html=1;exitX=0.5;exitY=1;exitDx=0;exitDy=0;entryX=0.5;entryY=0;entryDx=0;entryDy=0;" edge="1" parent="2" source="ppK0j8vu8VuufxJVlu7I-57" target="21">
          <mxGeometry relative="1" as="geometry" />
        </mxCell>
        <mxCell id="ppK0j8vu8VuufxJVlu7I-57" value="選擇起始位置" style="rounded=0;whiteSpace=wrap;html=1;fillColor=#FFFFFF;" parent="2" vertex="1">
          <mxGeometry x="80" y="98" width="110" height="50" as="geometry" />
        </mxCell>
        <mxCell id="cK3ykNUaYROa_rBBFCjn-60" style="edgeStyle=orthogonalEdgeStyle;rounded=0;orthogonalLoop=1;jettySize=auto;html=1;exitX=1;exitY=0;exitDx=0;exitDy=0;entryX=0.5;entryY=1;entryDx=0;entryDy=0;" edge="1" parent="2" source="21" target="cK3ykNUaYROa_rBBFCjn-54">
          <mxGeometry relative="1" as="geometry" />
        </mxCell>
        <mxCell id="21" value="選擇&#xa;定位方式" style="rhombus;fillColor=#FFFFFF;strokeColor=#000000;" parent="2" vertex="1">
          <mxGeometry x="95" y="164" width="80" height="55" as="geometry" />
        </mxCell>
        <mxCell id="ppK0j8vu8VuufxJVlu7I-70" value="選擇行程偏好" style="rounded=0;whiteSpace=wrap;html=1;" parent="2" vertex="1">
          <mxGeometry x="80" y="228" width="110" height="50" as="geometry" />
        </mxCell>
        <mxCell id="cK3ykNUaYROa_rBBFCjn-79" style="edgeStyle=orthogonalEdgeStyle;rounded=0;orthogonalLoop=1;jettySize=auto;html=1;exitX=0;exitY=0.5;exitDx=0;exitDy=0;entryX=1;entryY=0.5;entryDx=0;entryDy=0;" edge="1" parent="2" source="ppK0j8vu8VuufxJVlu7I-109" target="cK3ykNUaYROa_rBBFCjn-71">
          <mxGeometry relative="1" as="geometry" />
        </mxCell>
        <mxCell id="ppK0j8vu8VuufxJVlu7I-109" value="檢視路線" style="rounded=0;whiteSpace=wrap;html=1;" parent="2" vertex="1">
          <mxGeometry x="230" y="348" width="110" height="50" as="geometry" />
        </mxCell>
        <mxCell id="cK3ykNUaYROa_rBBFCjn-95" style="edgeStyle=orthogonalEdgeStyle;rounded=0;orthogonalLoop=1;jettySize=auto;html=1;exitX=0;exitY=0.5;exitDx=0;exitDy=0;entryX=0;entryY=0.5;entryDx=0;entryDy=0;" edge="1" parent="2" source="ppK0j8vu8VuufxJVlu7I-111" target="jxr4OUmFiKzb5Iq_gYUI-49">
          <mxGeometry relative="1" as="geometry">
            <Array as="points">
              <mxPoint x="75" y="446" />
              <mxPoint x="75" y="556" />
            </Array>
          </mxGeometry>
        </mxCell>
        <mxCell id="ppK0j8vu8VuufxJVlu7I-111" value="是否&#xa;更換景點" style="rhombus;fillColor=#FFFFFF;strokeColor=#000000;" parent="2" vertex="1">
          <mxGeometry x="95" y="418.5" width="80" height="55" as="geometry" />
        </mxCell>
        <mxCell id="jxr4OUmFiKzb5Iq_gYUI-49" value="是否&#xa;新增景點" style="rhombus;fillColor=#FFFFFF;strokeColor=#000000;" parent="2" vertex="1">
          <mxGeometry x="95" y="528" width="80" height="55" as="geometry" />
        </mxCell>
        <mxCell id="cK3ykNUaYROa_rBBFCjn-54" value="輸入出發地" style="rounded=0;whiteSpace=wrap;html=1;" vertex="1" parent="2">
          <mxGeometry x="230" y="98" width="110" height="50" as="geometry" />
        </mxCell>
        <mxCell id="cK3ykNUaYROa_rBBFCjn-40" value="輸入起始點" style="edgeLabel;html=1;align=center;verticalAlign=middle;resizable=0;points=[];" vertex="1" connectable="0" parent="2">
          <mxGeometry x="220" y="164" as="geometry" />
        </mxCell>
        <mxCell id="cK3ykNUaYROa_rBBFCjn-75" style="edgeStyle=orthogonalEdgeStyle;rounded=0;orthogonalLoop=1;jettySize=auto;html=1;exitX=0.5;exitY=1;exitDx=0;exitDy=0;entryX=0.5;entryY=0;entryDx=0;entryDy=0;" edge="1" parent="2" source="cK3ykNUaYROa_rBBFCjn-71" target="ppK0j8vu8VuufxJVlu7I-111">
          <mxGeometry relative="1" as="geometry" />
        </mxCell>
        <mxCell id="cK3ykNUaYROa_rBBFCjn-71" value="點選路線" style="rounded=0;whiteSpace=wrap;html=1;" vertex="1" parent="2">
          <mxGeometry x="80" y="348" width="110" height="50" as="geometry" />
        </mxCell>
        <mxCell id="cK3ykNUaYROa_rBBFCjn-103" style="edgeStyle=orthogonalEdgeStyle;rounded=0;orthogonalLoop=1;jettySize=auto;html=1;exitX=0;exitY=0.5;exitDx=0;exitDy=0;entryX=0.5;entryY=1;entryDx=0;entryDy=0;" edge="1" parent="2" source="cK3ykNUaYROa_rBBFCjn-101" target="jxr4OUmFiKzb5Iq_gYUI-49">
          <mxGeometry relative="1" as="geometry" />
        </mxCell>
        <mxCell id="cK3ykNUaYROa_rBBFCjn-101" value="選擇欲新增的景點" style="rounded=0;whiteSpace=wrap;html=1;strokeColor=#000000;fillColor=#FFFFFF;" vertex="1" parent="2">
          <mxGeometry x="230" y="608" width="110" height="50" as="geometry" />
        </mxCell>
        <mxCell id="3" value="Frontend" style="swimlane;whiteSpace=wrap" parent="1" vertex="1">
          <mxGeometry x="445" y="72" width="280" height="888" as="geometry" />
        </mxCell>
        <mxCell id="ppK0j8vu8VuufxJVlu7I-72" value="列出行程偏好選項" style="rounded=0;whiteSpace=wrap;html=1;" parent="3" vertex="1">
          <mxGeometry x="75.5" y="228" width="110" height="50" as="geometry" />
        </mxCell>
        <mxCell id="ppK0j8vu8VuufxJVlu7I-101" value="排列關聯度最高的&lt;br&gt;5條路線" style="rounded=0;whiteSpace=wrap;html=1;" parent="3" vertex="1">
          <mxGeometry x="75.5" y="348" width="110" height="50" as="geometry" />
        </mxCell>
        <mxCell id="ppK0j8vu8VuufxJVlu7I-121" value="排列更換後的&lt;br&gt;3個景點" style="rounded=0;whiteSpace=wrap;html=1;strokeColor=#000000;fillColor=#FFFFFF;" parent="3" vertex="1">
          <mxGeometry x="75.5" y="468" width="110" height="50" as="geometry" />
        </mxCell>
        <mxCell id="38" value="" style="ellipse;shape=endState;fillColor=#000000;strokeColor=#000000;" parent="3" vertex="1">
          <mxGeometry x="116" y="838" width="30" height="30" as="geometry" />
        </mxCell>
        <mxCell id="ppK0j8vu8VuufxJVlu7I-127" style="edgeStyle=orthogonalEdgeStyle;rounded=0;orthogonalLoop=1;jettySize=auto;html=1;entryX=0.5;entryY=0;entryDx=0;entryDy=0;strokeColor=#000000;fillColor=#000000;" parent="3" source="ppK0j8vu8VuufxJVlu7I-125" target="38" edge="1">
          <mxGeometry relative="1" as="geometry" />
        </mxCell>
        <mxCell id="ppK0j8vu8VuufxJVlu7I-125" value="顯示最終路線" style="rounded=0;whiteSpace=wrap;html=1;strokeColor=#000000;fillColor=#FFFFFF;" parent="3" vertex="1">
          <mxGeometry x="76" y="758" width="110" height="50" as="geometry" />
        </mxCell>
        <mxCell id="jxr4OUmFiKzb5Iq_gYUI-54" value="列出可新增的景點" style="rounded=0;whiteSpace=wrap;html=1;strokeColor=#000000;fillColor=#FFFFFF;" parent="3" vertex="1">
          <mxGeometry x="76" y="608" width="110" height="50" as="geometry" />
        </mxCell>
        <mxCell id="cK3ykNUaYROa_rBBFCjn-39" value="定位所在位置" style="edgeLabel;html=1;align=center;verticalAlign=middle;resizable=0;points=[];" vertex="1" connectable="0" parent="3">
          <mxGeometry x="131" y="178" as="geometry" />
        </mxCell>
        <mxCell id="cK3ykNUaYROa_rBBFCjn-63" value="" style="html=1;points=[];perimeter=orthogonalPerimeter;fillColor=#000000;strokeColor=none;" vertex="1" parent="3">
          <mxGeometry x="255" y="213" width="5" height="80" as="geometry" />
        </mxCell>
        <mxCell id="cK3ykNUaYROa_rBBFCjn-67" style="edgeStyle=orthogonalEdgeStyle;rounded=0;orthogonalLoop=1;jettySize=auto;html=1;exitX=0;exitY=0.5;exitDx=0;exitDy=0;strokeColor=#000000;fillColor=#000000;" edge="1" parent="3">
          <mxGeometry relative="1" as="geometry">
            <mxPoint x="255" y="252.5" as="sourcePoint" />
            <mxPoint x="185" y="253" as="targetPoint" />
            <Array as="points">
              <mxPoint x="205" y="253" />
              <mxPoint x="205" y="253" />
            </Array>
          </mxGeometry>
        </mxCell>
        <mxCell id="cK3ykNUaYROa_rBBFCjn-93" value="是" style="edgeLabel;html=1;align=center;verticalAlign=middle;resizable=0;points=[];" vertex="1" connectable="0" parent="3">
          <mxGeometry x="76" y="436" as="geometry" />
        </mxCell>
        <mxCell id="cK3ykNUaYROa_rBBFCjn-97" value="顯示訊息&lt;br&gt;「開始新增即無法再更換景點」" style="rounded=0;whiteSpace=wrap;html=1;strokeColor=#000000;fillColor=#FFFFFF;" vertex="1" parent="3">
          <mxGeometry x="76" y="528" width="110" height="50" as="geometry" />
        </mxCell>
        <mxCell id="cK3ykNUaYROa_rBBFCjn-104" value="" style="html=1;points=[];perimeter=orthogonalPerimeter;fillColor=#000000;strokeColor=none;rotation=-90;" vertex="1" parent="3">
          <mxGeometry x="126" y="698" width="5" height="80" as="geometry" />
        </mxCell>
        <mxCell id="cK3ykNUaYROa_rBBFCjn-107" style="edgeStyle=orthogonalEdgeStyle;rounded=0;orthogonalLoop=1;jettySize=auto;html=1;strokeColor=#000000;fillColor=#000000;" edge="1" parent="3">
          <mxGeometry relative="1" as="geometry">
            <mxPoint x="130" y="738" as="sourcePoint" />
            <mxPoint x="130" y="758" as="targetPoint" />
          </mxGeometry>
        </mxCell>
        <mxCell id="4" value="Backend" style="swimlane;whiteSpace=wrap" parent="1" vertex="1">
          <mxGeometry x="725" y="72" width="280" height="888" as="geometry" />
        </mxCell>
        <mxCell id="ppK0j8vu8VuufxJVlu7I-76" value="是否為&#xa;資料庫景點" style="rhombus;fillColor=#FFFFFF;strokeColor=#000000;" parent="4" vertex="1">
          <mxGeometry x="175" y="95.5" width="80" height="55" as="geometry" />
        </mxCell>
        <mxCell id="ppK0j8vu8VuufxJVlu7I-99" value="根據偏好權重計算&lt;br&gt;各景點關聯度" style="rounded=0;whiteSpace=wrap;html=1;" parent="4" vertex="1">
          <mxGeometry x="85" y="278" width="110" height="50" as="geometry" />
        </mxCell>
        <mxCell id="ppK0j8vu8VuufxJVlu7I-106" value="組合關聯度最高的&lt;br&gt;3個景點成一路線" style="rounded=0;whiteSpace=wrap;html=1;" parent="4" vertex="1">
          <mxGeometry x="85" y="348" width="110" height="50" as="geometry" />
        </mxCell>
        <mxCell id="ppK0j8vu8VuufxJVlu7I-105" style="edgeStyle=orthogonalEdgeStyle;rounded=0;orthogonalLoop=1;jettySize=auto;html=1;exitX=0.5;exitY=1;exitDx=0;exitDy=0;strokeColor=#000000;fillColor=#000000;" parent="4" source="ppK0j8vu8VuufxJVlu7I-99" target="ppK0j8vu8VuufxJVlu7I-106" edge="1">
          <mxGeometry relative="1" as="geometry">
            <mxPoint x="140" y="378" as="targetPoint" />
          </mxGeometry>
        </mxCell>
        <mxCell id="ppK0j8vu8VuufxJVlu7I-119" value="計算與此路線關聯度最高的景點" style="rounded=0;whiteSpace=wrap;html=1;strokeColor=#000000;fillColor=#FFFFFF;" parent="4" vertex="1">
          <mxGeometry x="85" y="420.5" width="110" height="50" as="geometry" />
        </mxCell>
        <mxCell id="ruZ6EW7WeJDkicJnZ1qc-38" value="計算與此路線關聯度&lt;br&gt;最高的景點" style="rounded=0;whiteSpace=wrap;html=1;strokeColor=#000000;fillColor=#FFFFFF;" parent="4" vertex="1">
          <mxGeometry x="85" y="608" width="110" height="50" as="geometry" />
        </mxCell>
        <mxCell id="ruZ6EW7WeJDkicJnZ1qc-40" style="edgeStyle=orthogonalEdgeStyle;rounded=0;orthogonalLoop=1;jettySize=auto;html=1;exitX=0.5;exitY=1;exitDx=0;exitDy=0;entryX=0.5;entryY=0;entryDx=0;entryDy=0;" parent="4" source="ruZ6EW7WeJDkicJnZ1qc-39" target="ruZ6EW7WeJDkicJnZ1qc-38" edge="1">
          <mxGeometry relative="1" as="geometry" />
        </mxCell>
        <mxCell id="ruZ6EW7WeJDkicJnZ1qc-39" value="景點數是否&#xa;達上限（6個）" style="rhombus;fillColor=#FFFFFF;strokeColor=#000000;" parent="4" vertex="1">
          <mxGeometry x="100" y="526" width="80" height="55" as="geometry" />
        </mxCell>
        <mxCell id="ruZ6EW7WeJDkicJnZ1qc-43" value="否" style="edgeLabel;html=1;align=center;verticalAlign=middle;resizable=0;points=[];" parent="4" vertex="1" connectable="0">
          <mxGeometry x="146" y="706" as="geometry">
            <mxPoint x="2" y="-116" as="offset" />
          </mxGeometry>
        </mxCell>
        <mxCell id="cK3ykNUaYROa_rBBFCjn-53" style="edgeStyle=orthogonalEdgeStyle;rounded=0;orthogonalLoop=1;jettySize=auto;html=1;exitX=1;exitY=0.5;exitDx=0;exitDy=0;entryX=0;entryY=0.5;entryDx=0;entryDy=0;" edge="1" parent="4" source="ppK0j8vu8VuufxJVlu7I-52" target="ppK0j8vu8VuufxJVlu7I-76">
          <mxGeometry relative="1" as="geometry" />
        </mxCell>
        <mxCell id="ppK0j8vu8VuufxJVlu7I-52" value="比對起始景點" style="rounded=0;whiteSpace=wrap;html=1;" parent="4" vertex="1">
          <mxGeometry x="25" y="98" width="110" height="50" as="geometry" />
        </mxCell>
        <mxCell id="cK3ykNUaYROa_rBBFCjn-38" value="定位起始點" style="rounded=0;whiteSpace=wrap;html=1;" vertex="1" parent="4">
          <mxGeometry x="25" y="166.5" width="110" height="50" as="geometry" />
        </mxCell>
        <mxCell id="cK3ykNUaYROa_rBBFCjn-106" value="是" style="edgeLabel;html=1;align=center;verticalAlign=middle;resizable=0;points=[];" vertex="1" connectable="0" parent="4">
          <mxGeometry x="235" y="748" as="geometry">
            <mxPoint x="2" y="-116" as="offset" />
          </mxGeometry>
        </mxCell>
        <mxCell id="ppK0j8vu8VuufxJVlu7I-87" value="否" style="edgeStyle=orthogonalEdgeStyle;rounded=0;orthogonalLoop=1;jettySize=auto;html=1;exitX=0.5;exitY=0;exitDx=0;exitDy=0;entryX=0.5;entryY=0;entryDx=0;entryDy=0;strokeColor=#000000;fillColor=#000000;" parent="1" source="ppK0j8vu8VuufxJVlu7I-76" target="cK3ykNUaYROa_rBBFCjn-54" edge="1">
          <mxGeometry relative="1" as="geometry">
            <mxPoint x="631" y="145" as="targetPoint" />
          </mxGeometry>
        </mxCell>
        <mxCell id="ppK0j8vu8VuufxJVlu7I-96" style="edgeStyle=orthogonalEdgeStyle;rounded=0;orthogonalLoop=1;jettySize=auto;html=1;exitX=0;exitY=0.5;exitDx=0;exitDy=0;entryX=1;entryY=0.5;entryDx=0;entryDy=0;strokeColor=#000000;fillColor=#000000;" parent="1" source="ppK0j8vu8VuufxJVlu7I-72" target="ppK0j8vu8VuufxJVlu7I-70" edge="1">
          <mxGeometry relative="1" as="geometry" />
        </mxCell>
        <mxCell id="ppK0j8vu8VuufxJVlu7I-100" style="edgeStyle=orthogonalEdgeStyle;rounded=0;orthogonalLoop=1;jettySize=auto;html=1;strokeColor=#000000;fillColor=#000000;exitX=0;exitY=0.5;exitDx=0;exitDy=0;" parent="1" source="ppK0j8vu8VuufxJVlu7I-106" target="ppK0j8vu8VuufxJVlu7I-101" edge="1">
          <mxGeometry relative="1" as="geometry">
            <mxPoint x="630" y="413" as="targetPoint" />
          </mxGeometry>
        </mxCell>
        <mxCell id="ppK0j8vu8VuufxJVlu7I-107" style="edgeStyle=orthogonalEdgeStyle;rounded=0;orthogonalLoop=1;jettySize=auto;html=1;exitX=0.5;exitY=1;exitDx=0;exitDy=0;strokeColor=#000000;fillColor=#000000;entryX=0;entryY=0.5;entryDx=0;entryDy=0;" parent="1" source="ppK0j8vu8VuufxJVlu7I-70" target="ppK0j8vu8VuufxJVlu7I-99" edge="1">
          <mxGeometry relative="1" as="geometry">
            <mxPoint x="740" y="400" as="targetPoint" />
          </mxGeometry>
        </mxCell>
        <mxCell id="ppK0j8vu8VuufxJVlu7I-108" style="edgeStyle=orthogonalEdgeStyle;rounded=0;orthogonalLoop=1;jettySize=auto;html=1;exitX=0;exitY=0.5;exitDx=0;exitDy=0;strokeColor=#000000;fillColor=#000000;" parent="1" source="ppK0j8vu8VuufxJVlu7I-101" target="ppK0j8vu8VuufxJVlu7I-109" edge="1">
          <mxGeometry relative="1" as="geometry">
            <mxPoint x="270" y="445" as="targetPoint" />
          </mxGeometry>
        </mxCell>
        <mxCell id="ppK0j8vu8VuufxJVlu7I-120" style="edgeStyle=orthogonalEdgeStyle;rounded=0;orthogonalLoop=1;jettySize=auto;html=1;exitX=0.5;exitY=1;exitDx=0;exitDy=0;strokeColor=#000000;fillColor=#000000;entryX=1;entryY=0.5;entryDx=0;entryDy=0;" parent="1" source="ppK0j8vu8VuufxJVlu7I-119" target="ppK0j8vu8VuufxJVlu7I-121" edge="1">
          <mxGeometry relative="1" as="geometry">
            <mxPoint x="390" y="590" as="targetPoint" />
          </mxGeometry>
        </mxCell>
        <mxCell id="jxr4OUmFiKzb5Iq_gYUI-55" value="是" style="edgeStyle=orthogonalEdgeStyle;rounded=0;orthogonalLoop=1;jettySize=auto;html=1;exitX=1;exitY=0.5;exitDx=0;exitDy=0;strokeColor=#000000;fillColor=#000000;entryX=0;entryY=0.5;entryDx=0;entryDy=0;" parent="1" source="jxr4OUmFiKzb5Iq_gYUI-49" target="cK3ykNUaYROa_rBBFCjn-97" edge="1">
          <mxGeometry relative="1" as="geometry">
            <mxPoint x="806" y="727.5" as="targetPoint" />
            <mxPoint x="260" y="720" as="sourcePoint" />
          </mxGeometry>
        </mxCell>
        <mxCell id="jxr4OUmFiKzb5Iq_gYUI-58" value="否" style="edgeStyle=orthogonalEdgeStyle;rounded=0;orthogonalLoop=1;jettySize=auto;html=1;entryX=0.94;entryY=0.316;entryDx=0;entryDy=0;strokeColor=#000000;fillColor=#000000;exitX=0;exitY=1;exitDx=0;exitDy=0;entryPerimeter=0;" parent="1" source="jxr4OUmFiKzb5Iq_gYUI-49" target="cK3ykNUaYROa_rBBFCjn-104" edge="1">
          <mxGeometry relative="1" as="geometry">
            <Array as="points">
              <mxPoint x="160" y="641" />
              <mxPoint x="160" y="770" />
              <mxPoint x="559" y="770" />
            </Array>
            <mxPoint x="175" y="730" as="sourcePoint" />
            <mxPoint x="160" y="867.5" as="targetPoint" />
          </mxGeometry>
        </mxCell>
        <mxCell id="ruZ6EW7WeJDkicJnZ1qc-42" style="edgeStyle=orthogonalEdgeStyle;rounded=0;orthogonalLoop=1;jettySize=auto;html=1;exitX=0;exitY=0.5;exitDx=0;exitDy=0;entryX=1;entryY=0.5;entryDx=0;entryDy=0;" parent="1" source="ruZ6EW7WeJDkicJnZ1qc-38" target="jxr4OUmFiKzb5Iq_gYUI-54" edge="1">
          <mxGeometry relative="1" as="geometry" />
        </mxCell>
        <mxCell id="cK3ykNUaYROa_rBBFCjn-55" style="edgeStyle=orthogonalEdgeStyle;rounded=0;orthogonalLoop=1;jettySize=auto;html=1;exitX=1;exitY=0.5;exitDx=0;exitDy=0;entryX=0;entryY=0.5;entryDx=0;entryDy=0;" edge="1" parent="1" source="cK3ykNUaYROa_rBBFCjn-54" target="ppK0j8vu8VuufxJVlu7I-52">
          <mxGeometry relative="1" as="geometry" />
        </mxCell>
        <mxCell id="cK3ykNUaYROa_rBBFCjn-59" style="edgeStyle=orthogonalEdgeStyle;rounded=0;orthogonalLoop=1;jettySize=auto;html=1;exitX=1;exitY=0.5;exitDx=0;exitDy=0;entryX=0;entryY=0.5;entryDx=0;entryDy=0;" edge="1" parent="1" source="21" target="cK3ykNUaYROa_rBBFCjn-38">
          <mxGeometry relative="1" as="geometry" />
        </mxCell>
        <mxCell id="cK3ykNUaYROa_rBBFCjn-68" style="edgeStyle=orthogonalEdgeStyle;rounded=0;orthogonalLoop=1;jettySize=auto;html=1;exitX=0.5;exitY=1;exitDx=0;exitDy=0;entryX=0.88;entryY=0.355;entryDx=0;entryDy=0;entryPerimeter=0;" edge="1" parent="1" source="cK3ykNUaYROa_rBBFCjn-38" target="cK3ykNUaYROa_rBBFCjn-63">
          <mxGeometry relative="1" as="geometry" />
        </mxCell>
        <mxCell id="cK3ykNUaYROa_rBBFCjn-70" value="是" style="edgeStyle=orthogonalEdgeStyle;rounded=0;orthogonalLoop=1;jettySize=auto;html=1;strokeColor=#000000;fillColor=#000000;entryX=1.04;entryY=0.715;entryDx=0;entryDy=0;entryPerimeter=0;exitX=0.5;exitY=1;exitDx=0;exitDy=0;" edge="1" parent="1" source="ppK0j8vu8VuufxJVlu7I-76">
          <mxGeometry relative="1" as="geometry">
            <mxPoint x="705.2" y="338.20000000000005" as="targetPoint" />
            <mxPoint x="940" y="230" as="sourcePoint" />
            <Array as="points">
              <mxPoint x="940" y="338" />
            </Array>
          </mxGeometry>
        </mxCell>
        <mxCell id="cK3ykNUaYROa_rBBFCjn-81" style="edgeStyle=orthogonalEdgeStyle;rounded=0;orthogonalLoop=1;jettySize=auto;html=1;exitX=1;exitY=0.5;exitDx=0;exitDy=0;" edge="1" parent="1" source="ppK0j8vu8VuufxJVlu7I-111" target="ppK0j8vu8VuufxJVlu7I-119">
          <mxGeometry relative="1" as="geometry" />
        </mxCell>
        <mxCell id="cK3ykNUaYROa_rBBFCjn-94" style="edgeStyle=orthogonalEdgeStyle;rounded=0;orthogonalLoop=1;jettySize=auto;html=1;exitX=0;exitY=0.5;exitDx=0;exitDy=0;entryX=0.5;entryY=1;entryDx=0;entryDy=0;" edge="1" parent="1" source="ppK0j8vu8VuufxJVlu7I-121" target="ppK0j8vu8VuufxJVlu7I-111">
          <mxGeometry relative="1" as="geometry">
            <Array as="points">
              <mxPoint x="521" y="566" />
              <mxPoint x="215" y="566" />
            </Array>
          </mxGeometry>
        </mxCell>
        <mxCell id="cK3ykNUaYROa_rBBFCjn-96" value="否" style="edgeLabel;html=1;align=center;verticalAlign=middle;resizable=0;points=[];" vertex="1" connectable="0" parent="1">
          <mxGeometry x="536" y="526" as="geometry">
            <mxPoint x="-393" y="36" as="offset" />
          </mxGeometry>
        </mxCell>
        <mxCell id="cK3ykNUaYROa_rBBFCjn-98" style="edgeStyle=orthogonalEdgeStyle;rounded=0;orthogonalLoop=1;jettySize=auto;html=1;exitX=1;exitY=0.5;exitDx=0;exitDy=0;entryX=0;entryY=0.5;entryDx=0;entryDy=0;" edge="1" parent="1" source="cK3ykNUaYROa_rBBFCjn-97" target="ruZ6EW7WeJDkicJnZ1qc-39">
          <mxGeometry relative="1" as="geometry" />
        </mxCell>
        <mxCell id="cK3ykNUaYROa_rBBFCjn-102" style="edgeStyle=orthogonalEdgeStyle;rounded=0;orthogonalLoop=1;jettySize=auto;html=1;exitX=0;exitY=0.5;exitDx=0;exitDy=0;entryX=1;entryY=0.5;entryDx=0;entryDy=0;" edge="1" parent="1" source="jxr4OUmFiKzb5Iq_gYUI-54" target="cK3ykNUaYROa_rBBFCjn-101">
          <mxGeometry relative="1" as="geometry" />
        </mxCell>
        <mxCell id="cK3ykNUaYROa_rBBFCjn-105" style="edgeStyle=orthogonalEdgeStyle;rounded=0;orthogonalLoop=1;jettySize=auto;html=1;exitX=1;exitY=0.5;exitDx=0;exitDy=0;entryX=0.78;entryY=0.676;entryDx=0;entryDy=0;entryPerimeter=0;" edge="1" parent="1" source="ruZ6EW7WeJDkicJnZ1qc-39" target="cK3ykNUaYROa_rBBFCjn-104">
          <mxGeometry relative="1" as="geometry">
            <Array as="points">
              <mxPoint x="950" y="626" />
              <mxPoint x="950" y="770" />
              <mxPoint x="588" y="770" />
            </Array>
          </mxGeometry>
        </mxCell>
      </root>
    </mxGraphModel>
  </diagram>
  <diagram id="ApR0nUHVrAWEcx5pm0RY" name="Page-2">
    <mxGraphModel dx="1038" dy="548" grid="1" gridSize="10" guides="1" tooltips="1" connect="1" arrows="1" fold="1" page="1" pageScale="1" pageWidth="827" pageHeight="1169" math="0" shadow="0">
      <root>
        <mxCell id="unPt-CfE9gg_xR5_pxN_-0" />
        <mxCell id="unPt-CfE9gg_xR5_pxN_-1" parent="unPt-CfE9gg_xR5_pxN_-0" />
        <mxCell id="VJmC0vJ_p1k22lX9oLKS-0" value="User" style="swimlane;whiteSpace=wrap" vertex="1" parent="unPt-CfE9gg_xR5_pxN_-1">
          <mxGeometry x="80" y="72" width="360" height="1078" as="geometry" />
        </mxCell>
        <mxCell id="ydiVJFpolEovmBLydGfg-1" style="edgeStyle=orthogonalEdgeStyle;rounded=0;orthogonalLoop=1;jettySize=auto;html=1;exitX=0.5;exitY=1;exitDx=0;exitDy=0;entryX=0.5;entryY=0;entryDx=0;entryDy=0;" edge="1" parent="VJmC0vJ_p1k22lX9oLKS-0" source="VJmC0vJ_p1k22lX9oLKS-67" target="fO-4J-LZSwy8DaHoXitR-0">
          <mxGeometry relative="1" as="geometry" />
        </mxCell>
        <mxCell id="VJmC0vJ_p1k22lX9oLKS-67" value="" style="ellipse;fillColor=#000000;strokeColor=none;" vertex="1" parent="VJmC0vJ_p1k22lX9oLKS-0">
          <mxGeometry x="90" y="38" width="30" height="30" as="geometry" />
        </mxCell>
        <mxCell id="ydiVJFpolEovmBLydGfg-2" style="edgeStyle=orthogonalEdgeStyle;rounded=0;orthogonalLoop=1;jettySize=auto;html=1;exitX=0.5;exitY=1;exitDx=0;exitDy=0;entryX=0.5;entryY=0;entryDx=0;entryDy=0;" edge="1" parent="VJmC0vJ_p1k22lX9oLKS-0" source="fO-4J-LZSwy8DaHoXitR-0" target="ydiVJFpolEovmBLydGfg-0">
          <mxGeometry relative="1" as="geometry" />
        </mxCell>
        <mxCell id="fO-4J-LZSwy8DaHoXitR-0" value="選擇起始位置" style="html=1;" vertex="1" parent="VJmC0vJ_p1k22lX9oLKS-0">
          <mxGeometry x="50" y="88" width="110" height="50" as="geometry" />
        </mxCell>
        <mxCell id="fNqX8IiOOkzKNAeZ5xTb-1" style="edgeStyle=orthogonalEdgeStyle;rounded=0;orthogonalLoop=1;jettySize=auto;html=1;exitX=1;exitY=0.5;exitDx=0;exitDy=0;entryX=0;entryY=0.5;entryDx=0;entryDy=0;" edge="1" parent="VJmC0vJ_p1k22lX9oLKS-0" source="ydiVJFpolEovmBLydGfg-0" target="fNqX8IiOOkzKNAeZ5xTb-0">
          <mxGeometry relative="1" as="geometry" />
        </mxCell>
        <mxCell id="ydiVJFpolEovmBLydGfg-0" value="選擇&#xa;定位方式" style="rhombus;fillColor=#FFFFFF;strokeColor=#000000;" vertex="1" parent="VJmC0vJ_p1k22lX9oLKS-0">
          <mxGeometry x="65" y="158" width="80" height="55" as="geometry" />
        </mxCell>
        <mxCell id="fNqX8IiOOkzKNAeZ5xTb-0" value="輸入出發地" style="rounded=0;whiteSpace=wrap;html=1;" vertex="1" parent="VJmC0vJ_p1k22lX9oLKS-0">
          <mxGeometry x="210" y="160.5" width="110" height="50" as="geometry" />
        </mxCell>
        <mxCell id="N3GWCDyLtbpZvjjmdudr-0" value="輸入起始點" style="edgeLabel;html=1;align=center;verticalAlign=middle;resizable=0;points=[];" vertex="1" connectable="0" parent="VJmC0vJ_p1k22lX9oLKS-0">
          <mxGeometry x="170" y="174" as="geometry" />
        </mxCell>
        <mxCell id="FHYp18kSvgdXk8QSD6FJ-0" value="定位所在位置" style="edgeLabel;html=1;align=center;verticalAlign=middle;resizable=0;points=[];" vertex="1" connectable="0" parent="VJmC0vJ_p1k22lX9oLKS-0">
          <mxGeometry x="260" y="243" as="geometry" />
        </mxCell>
        <mxCell id="pVNrbS-83j-LOLwaV4U8-0" value="選擇行程偏好" style="rounded=0;whiteSpace=wrap;html=1;" vertex="1" parent="VJmC0vJ_p1k22lX9oLKS-0">
          <mxGeometry x="125" y="318" width="110" height="50" as="geometry" />
        </mxCell>
        <mxCell id="gjmQ_ck-Rc1zfVfGLi4w-1" style="edgeStyle=orthogonalEdgeStyle;rounded=0;orthogonalLoop=1;jettySize=auto;html=1;exitX=0.5;exitY=1;exitDx=0;exitDy=0;entryX=0.5;entryY=0;entryDx=0;entryDy=0;" edge="1" parent="VJmC0vJ_p1k22lX9oLKS-0" source="ljimaw0nd_LXeTOV9N75-0" target="gjmQ_ck-Rc1zfVfGLi4w-0">
          <mxGeometry relative="1" as="geometry" />
        </mxCell>
        <mxCell id="ljimaw0nd_LXeTOV9N75-0" value="檢視路線" style="rounded=0;whiteSpace=wrap;html=1;" vertex="1" parent="VJmC0vJ_p1k22lX9oLKS-0">
          <mxGeometry x="125" y="462.5" width="110" height="50" as="geometry" />
        </mxCell>
        <mxCell id="ZmxKQ7ms9aLGMcQDK13I-1" style="edgeStyle=orthogonalEdgeStyle;rounded=0;orthogonalLoop=1;jettySize=auto;html=1;exitX=0.5;exitY=1;exitDx=0;exitDy=0;entryX=0.5;entryY=0;entryDx=0;entryDy=0;" edge="1" parent="VJmC0vJ_p1k22lX9oLKS-0" source="gjmQ_ck-Rc1zfVfGLi4w-0" target="ZmxKQ7ms9aLGMcQDK13I-0">
          <mxGeometry relative="1" as="geometry" />
        </mxCell>
        <mxCell id="gjmQ_ck-Rc1zfVfGLi4w-0" value="點選路線" style="rounded=0;whiteSpace=wrap;html=1;" vertex="1" parent="VJmC0vJ_p1k22lX9oLKS-0">
          <mxGeometry x="125" y="528" width="110" height="50" as="geometry" />
        </mxCell>
        <mxCell id="nDS011vUd1iVRMZf5xfw-1" style="edgeStyle=orthogonalEdgeStyle;rounded=0;orthogonalLoop=1;jettySize=auto;html=1;exitX=0;exitY=0.5;exitDx=0;exitDy=0;entryX=0.5;entryY=0;entryDx=0;entryDy=0;" edge="1" parent="VJmC0vJ_p1k22lX9oLKS-0" source="ZmxKQ7ms9aLGMcQDK13I-0" target="nDS011vUd1iVRMZf5xfw-0">
          <mxGeometry relative="1" as="geometry">
            <Array as="points">
              <mxPoint x="105" y="626" />
            </Array>
          </mxGeometry>
        </mxCell>
        <mxCell id="ZmxKQ7ms9aLGMcQDK13I-0" value="是否&#xa;更換景點" style="rhombus;fillColor=#FFFFFF;strokeColor=#000000;" vertex="1" parent="VJmC0vJ_p1k22lX9oLKS-0">
          <mxGeometry x="140" y="598" width="80" height="55" as="geometry" />
        </mxCell>
        <mxCell id="nDS011vUd1iVRMZf5xfw-0" value="是否&#xa;新增景點" style="rhombus;fillColor=#FFFFFF;strokeColor=#000000;" vertex="1" parent="VJmC0vJ_p1k22lX9oLKS-0">
          <mxGeometry x="65" y="735.5" width="80" height="55" as="geometry" />
        </mxCell>
        <mxCell id="nDS011vUd1iVRMZf5xfw-2" value="是" style="edgeLabel;html=1;align=center;verticalAlign=middle;resizable=0;points=[];" vertex="1" connectable="0" parent="VJmC0vJ_p1k22lX9oLKS-0">
          <mxGeometry x="105" y="487.5" as="geometry">
            <mxPoint x="229" y="126" as="offset" />
          </mxGeometry>
        </mxCell>
        <mxCell id="nDS011vUd1iVRMZf5xfw-3" value="否" style="edgeLabel;html=1;align=center;verticalAlign=middle;resizable=0;points=[];" vertex="1" connectable="0" parent="VJmC0vJ_p1k22lX9oLKS-0">
          <mxGeometry x="-136" y="558" as="geometry">
            <mxPoint x="229" y="126" as="offset" />
          </mxGeometry>
        </mxCell>
        <mxCell id="uS8Wvzoy_rW2rTAMlGWx-3" style="edgeStyle=orthogonalEdgeStyle;rounded=0;orthogonalLoop=1;jettySize=auto;html=1;exitX=0;exitY=0.5;exitDx=0;exitDy=0;entryX=0.5;entryY=1;entryDx=0;entryDy=0;" edge="1" parent="VJmC0vJ_p1k22lX9oLKS-0" source="CI8F-uyJcumI6YAwOA07-0" target="nDS011vUd1iVRMZf5xfw-0">
          <mxGeometry relative="1" as="geometry" />
        </mxCell>
        <mxCell id="CI8F-uyJcumI6YAwOA07-0" value="選擇欲新增的景點" style="rounded=0;whiteSpace=wrap;html=1;strokeColor=#000000;fillColor=#FFFFFF;" vertex="1" parent="VJmC0vJ_p1k22lX9oLKS-0">
          <mxGeometry x="205" y="808" width="110" height="50" as="geometry" />
        </mxCell>
        <mxCell id="9PR56mxn4MOF85WrsnWM-6" value="否" style="edgeLabel;html=1;align=center;verticalAlign=middle;resizable=0;points=[];" vertex="1" connectable="0" parent="VJmC0vJ_p1k22lX9oLKS-0">
          <mxGeometry x="-175" y="713" as="geometry">
            <mxPoint x="229" y="126" as="offset" />
          </mxGeometry>
        </mxCell>
        <mxCell id="9PR56mxn4MOF85WrsnWM-8" value="是" style="edgeLabel;html=1;align=center;verticalAlign=middle;resizable=0;points=[];" vertex="1" connectable="0" parent="VJmC0vJ_p1k22lX9oLKS-0">
          <mxGeometry x="40" y="625.5" as="geometry">
            <mxPoint x="229" y="126" as="offset" />
          </mxGeometry>
        </mxCell>
        <mxCell id="VJmC0vJ_p1k22lX9oLKS-19" value="System" style="swimlane;whiteSpace=wrap" vertex="1" parent="unPt-CfE9gg_xR5_pxN_-1">
          <mxGeometry x="440" y="72" width="360" height="1078" as="geometry" />
        </mxCell>
        <mxCell id="GPT41twSQDhy25UnQRTS-1" style="edgeStyle=orthogonalEdgeStyle;rounded=0;orthogonalLoop=1;jettySize=auto;html=1;exitX=1;exitY=0.5;exitDx=0;exitDy=0;entryX=0;entryY=0.5;entryDx=0;entryDy=0;" edge="1" parent="VJmC0vJ_p1k22lX9oLKS-19" source="2HwmhRPb520Yy3zAajEr-0" target="GPT41twSQDhy25UnQRTS-0">
          <mxGeometry relative="1" as="geometry" />
        </mxCell>
        <mxCell id="2HwmhRPb520Yy3zAajEr-0" value="比對起始景點" style="rounded=0;whiteSpace=wrap;html=1;" vertex="1" parent="VJmC0vJ_p1k22lX9oLKS-19">
          <mxGeometry x="40" y="160.5" width="110" height="50" as="geometry" />
        </mxCell>
        <mxCell id="fusBMo20h3q3hRPO7p3z-2" style="edgeStyle=orthogonalEdgeStyle;rounded=0;orthogonalLoop=1;jettySize=auto;html=1;exitX=0.5;exitY=1;exitDx=0;exitDy=0;entryX=0.94;entryY=0.675;entryDx=0;entryDy=0;entryPerimeter=0;" edge="1" parent="VJmC0vJ_p1k22lX9oLKS-19" target="Psa2C2N-mSPcSDjJtzzU-0">
          <mxGeometry relative="1" as="geometry">
            <mxPoint x="270" y="210" as="sourcePoint" />
            <mxPoint x="194" y="293" as="targetPoint" />
            <Array as="points">
              <mxPoint x="270" y="253" />
              <mxPoint x="194" y="253" />
            </Array>
          </mxGeometry>
        </mxCell>
        <mxCell id="GPT41twSQDhy25UnQRTS-0" value="是否為&#xa;資料庫景點" style="rhombus;fillColor=#FFFFFF;strokeColor=#000000;" vertex="1" parent="VJmC0vJ_p1k22lX9oLKS-19">
          <mxGeometry x="230" y="158" width="80" height="55" as="geometry" />
        </mxCell>
        <mxCell id="GPT41twSQDhy25UnQRTS-3" value="否" style="edgeLabel;html=1;align=center;verticalAlign=middle;resizable=0;points=[];" vertex="1" connectable="0" parent="VJmC0vJ_p1k22lX9oLKS-19">
          <mxGeometry x="95" y="55" as="geometry">
            <mxPoint x="3" y="71" as="offset" />
          </mxGeometry>
        </mxCell>
        <mxCell id="fusBMo20h3q3hRPO7p3z-1" style="edgeStyle=orthogonalEdgeStyle;rounded=0;orthogonalLoop=1;jettySize=auto;html=1;exitX=1;exitY=0.5;exitDx=0;exitDy=0;entryX=0.94;entryY=0.375;entryDx=0;entryDy=0;entryPerimeter=0;" edge="1" parent="VJmC0vJ_p1k22lX9oLKS-19" source="-reVaouew2m_lxR5b55J-0" target="Psa2C2N-mSPcSDjJtzzU-0">
          <mxGeometry relative="1" as="geometry" />
        </mxCell>
        <mxCell id="-reVaouew2m_lxR5b55J-0" value="定位起始點" style="rounded=0;whiteSpace=wrap;html=1;" vertex="1" parent="VJmC0vJ_p1k22lX9oLKS-19">
          <mxGeometry x="40" y="228" width="110" height="50" as="geometry" />
        </mxCell>
        <mxCell id="fusBMo20h3q3hRPO7p3z-0" value="列出行程偏好選項" style="rounded=0;whiteSpace=wrap;html=1;" vertex="1" parent="VJmC0vJ_p1k22lX9oLKS-19">
          <mxGeometry x="125" y="318" width="110" height="50" as="geometry" />
        </mxCell>
        <mxCell id="fusBMo20h3q3hRPO7p3z-3" value="是" style="edgeLabel;html=1;align=center;verticalAlign=middle;resizable=0;points=[];" vertex="1" connectable="0" parent="VJmC0vJ_p1k22lX9oLKS-19">
          <mxGeometry x="50" y="108" as="geometry">
            <mxPoint x="229" y="126" as="offset" />
          </mxGeometry>
        </mxCell>
        <mxCell id="Psa2C2N-mSPcSDjJtzzU-0" value="" style="html=1;points=[];perimeter=orthogonalPerimeter;fillColor=#000000;strokeColor=none;rotation=-90;" vertex="1" parent="VJmC0vJ_p1k22lX9oLKS-19">
          <mxGeometry x="177.5" y="258" width="5" height="80" as="geometry" />
        </mxCell>
        <mxCell id="Psa2C2N-mSPcSDjJtzzU-1" style="edgeStyle=orthogonalEdgeStyle;rounded=0;orthogonalLoop=1;jettySize=auto;html=1;exitX=0.14;exitY=0.495;exitDx=0;exitDy=0;exitPerimeter=0;" edge="1" parent="VJmC0vJ_p1k22lX9oLKS-19" source="Psa2C2N-mSPcSDjJtzzU-0">
          <mxGeometry relative="1" as="geometry">
            <mxPoint x="230" y="338" as="sourcePoint" />
            <mxPoint x="180" y="318" as="targetPoint" />
          </mxGeometry>
        </mxCell>
        <mxCell id="jpQiI-CLFkEkConO15mq-2" style="edgeStyle=orthogonalEdgeStyle;rounded=0;orthogonalLoop=1;jettySize=auto;html=1;exitX=0.5;exitY=1;exitDx=0;exitDy=0;entryX=0.5;entryY=0;entryDx=0;entryDy=0;" edge="1" parent="VJmC0vJ_p1k22lX9oLKS-19" source="Q03EmLQ3t6mmNia7QgSg-0" target="jpQiI-CLFkEkConO15mq-0">
          <mxGeometry relative="1" as="geometry" />
        </mxCell>
        <mxCell id="Q03EmLQ3t6mmNia7QgSg-0" value="計算各景點關聯度&lt;br&gt;的權重" style="rounded=0;whiteSpace=wrap;html=1;" vertex="1" parent="VJmC0vJ_p1k22lX9oLKS-19">
          <mxGeometry x="125" y="388" width="110" height="50" as="geometry" />
        </mxCell>
        <mxCell id="jpQiI-CLFkEkConO15mq-0" value="排列關聯度最高的&lt;br&gt;5條路線&lt;br&gt;每條3個景點" style="rounded=0;whiteSpace=wrap;html=1;" vertex="1" parent="VJmC0vJ_p1k22lX9oLKS-19">
          <mxGeometry x="125" y="462" width="110" height="50" as="geometry" />
        </mxCell>
        <mxCell id="Ox77bXfGX0Dl6s76IPdl-4" style="edgeStyle=orthogonalEdgeStyle;rounded=0;orthogonalLoop=1;jettySize=auto;html=1;exitX=0.5;exitY=1;exitDx=0;exitDy=0;entryX=0.5;entryY=0;entryDx=0;entryDy=0;" edge="1" parent="VJmC0vJ_p1k22lX9oLKS-19" source="nUlol3t4gvIzWqPROwK7-0" target="Ox77bXfGX0Dl6s76IPdl-0">
          <mxGeometry relative="1" as="geometry" />
        </mxCell>
        <mxCell id="nUlol3t4gvIzWqPROwK7-0" value="計算與此路線關聯度最高的景點" style="rounded=0;whiteSpace=wrap;html=1;strokeColor=#000000;fillColor=#FFFFFF;" vertex="1" parent="VJmC0vJ_p1k22lX9oLKS-19">
          <mxGeometry x="125" y="600.5" width="110" height="50" as="geometry" />
        </mxCell>
        <mxCell id="Ox77bXfGX0Dl6s76IPdl-0" value="排列更換後的&lt;br&gt;3個景點" style="rounded=0;whiteSpace=wrap;html=1;strokeColor=#000000;fillColor=#FFFFFF;" vertex="1" parent="VJmC0vJ_p1k22lX9oLKS-19">
          <mxGeometry x="125" y="668" width="110" height="50" as="geometry" />
        </mxCell>
        <mxCell id="CI8F-uyJcumI6YAwOA07-3" style="edgeStyle=orthogonalEdgeStyle;rounded=0;orthogonalLoop=1;jettySize=auto;html=1;exitX=1;exitY=0.5;exitDx=0;exitDy=0;entryX=0;entryY=0.5;entryDx=0;entryDy=0;" edge="1" parent="VJmC0vJ_p1k22lX9oLKS-19" source="SATEWtSXCpCv6psHAIbz-0" target="xdhgeQsj-WYIkov8o34t-0">
          <mxGeometry relative="1" as="geometry" />
        </mxCell>
        <mxCell id="SATEWtSXCpCv6psHAIbz-0" value="顯示訊息&lt;br&gt;「開始新增即無法再更換景點」" style="rounded=0;whiteSpace=wrap;html=1;strokeColor=#000000;fillColor=#FFFFFF;" vertex="1" parent="VJmC0vJ_p1k22lX9oLKS-19">
          <mxGeometry x="50" y="738" width="110" height="50" as="geometry" />
        </mxCell>
        <mxCell id="CI8F-uyJcumI6YAwOA07-4" style="edgeStyle=orthogonalEdgeStyle;rounded=0;orthogonalLoop=1;jettySize=auto;html=1;exitX=0.5;exitY=1;exitDx=0;exitDy=0;entryX=0.5;entryY=0;entryDx=0;entryDy=0;" edge="1" parent="VJmC0vJ_p1k22lX9oLKS-19" source="xdhgeQsj-WYIkov8o34t-0" target="SSSjoow0mg4utNm1fgFF-0">
          <mxGeometry relative="1" as="geometry" />
        </mxCell>
        <mxCell id="uS8Wvzoy_rW2rTAMlGWx-1" style="edgeStyle=orthogonalEdgeStyle;rounded=0;orthogonalLoop=1;jettySize=auto;html=1;exitX=1;exitY=0.5;exitDx=0;exitDy=0;entryX=0.7;entryY=0.725;entryDx=0;entryDy=0;entryPerimeter=0;" edge="1" parent="VJmC0vJ_p1k22lX9oLKS-19" source="xdhgeQsj-WYIkov8o34t-0" target="uS8Wvzoy_rW2rTAMlGWx-0">
          <mxGeometry relative="1" as="geometry">
            <mxPoint x="310" y="778" as="sourcePoint" />
            <Array as="points">
              <mxPoint x="340" y="763" />
              <mxPoint x="340" y="903" />
              <mxPoint x="198" y="903" />
            </Array>
          </mxGeometry>
        </mxCell>
        <mxCell id="xdhgeQsj-WYIkov8o34t-0" value="景點數是否&#xa;達上限（6個）" style="rhombus;fillColor=#FFFFFF;strokeColor=#000000;" vertex="1" parent="VJmC0vJ_p1k22lX9oLKS-19">
          <mxGeometry x="230" y="735.5" width="80" height="55" as="geometry" />
        </mxCell>
        <mxCell id="CI8F-uyJcumI6YAwOA07-5" style="edgeStyle=orthogonalEdgeStyle;rounded=0;orthogonalLoop=1;jettySize=auto;html=1;exitX=0;exitY=0.5;exitDx=0;exitDy=0;entryX=1;entryY=0.5;entryDx=0;entryDy=0;" edge="1" parent="VJmC0vJ_p1k22lX9oLKS-19" source="SSSjoow0mg4utNm1fgFF-0" target="jX8l0SNZoStM_XsevRjH-0">
          <mxGeometry relative="1" as="geometry" />
        </mxCell>
        <mxCell id="SSSjoow0mg4utNm1fgFF-0" value="計算與此路線關聯度&lt;br&gt;最高的景點" style="rounded=0;whiteSpace=wrap;html=1;strokeColor=#000000;fillColor=#FFFFFF;" vertex="1" parent="VJmC0vJ_p1k22lX9oLKS-19">
          <mxGeometry x="215" y="808" width="110" height="50" as="geometry" />
        </mxCell>
        <mxCell id="jX8l0SNZoStM_XsevRjH-0" value="列出可新增的景點" style="rounded=0;whiteSpace=wrap;html=1;strokeColor=#000000;fillColor=#FFFFFF;" vertex="1" parent="VJmC0vJ_p1k22lX9oLKS-19">
          <mxGeometry x="50" y="808" width="110" height="50" as="geometry" />
        </mxCell>
        <mxCell id="9PR56mxn4MOF85WrsnWM-2" style="edgeStyle=orthogonalEdgeStyle;rounded=0;orthogonalLoop=1;jettySize=auto;html=1;exitX=0.5;exitY=1;exitDx=0;exitDy=0;entryX=0.5;entryY=0;entryDx=0;entryDy=0;" edge="1" parent="VJmC0vJ_p1k22lX9oLKS-19" source="8OoVg_iugSWV1Omteesx-0" target="9PR56mxn4MOF85WrsnWM-0">
          <mxGeometry relative="1" as="geometry" />
        </mxCell>
        <mxCell id="8OoVg_iugSWV1Omteesx-0" value="顯示最終路線" style="rounded=0;whiteSpace=wrap;html=1;strokeColor=#000000;fillColor=#FFFFFF;" vertex="1" parent="VJmC0vJ_p1k22lX9oLKS-19">
          <mxGeometry x="125" y="948" width="110" height="50" as="geometry" />
        </mxCell>
        <mxCell id="uS8Wvzoy_rW2rTAMlGWx-0" value="" style="html=1;points=[];perimeter=orthogonalPerimeter;fillColor=#000000;strokeColor=none;rotation=-90;" vertex="1" parent="VJmC0vJ_p1k22lX9oLKS-19">
          <mxGeometry x="177.5" y="883" width="5" height="80" as="geometry" />
        </mxCell>
        <mxCell id="uS8Wvzoy_rW2rTAMlGWx-5" style="edgeStyle=orthogonalEdgeStyle;rounded=0;orthogonalLoop=1;jettySize=auto;html=1;exitX=0.5;exitY=1;exitDx=0;exitDy=0;entryX=0.5;entryY=0;entryDx=0;entryDy=0;" edge="1" parent="VJmC0vJ_p1k22lX9oLKS-19" target="8OoVg_iugSWV1Omteesx-0">
          <mxGeometry relative="1" as="geometry">
            <mxPoint x="179.5" y="924.5" as="sourcePoint" />
            <mxPoint x="179.5" y="942" as="targetPoint" />
          </mxGeometry>
        </mxCell>
        <mxCell id="9PR56mxn4MOF85WrsnWM-0" value="" style="ellipse;shape=endState;fillColor=#000000;strokeColor=#000000;" vertex="1" parent="VJmC0vJ_p1k22lX9oLKS-19">
          <mxGeometry x="165" y="1028" width="30" height="30" as="geometry" />
        </mxCell>
        <mxCell id="9PR56mxn4MOF85WrsnWM-3" value="是" style="edgeLabel;html=1;align=center;verticalAlign=middle;resizable=0;points=[];" vertex="1" connectable="0" parent="VJmC0vJ_p1k22lX9oLKS-19">
          <mxGeometry x="56" y="765" as="geometry">
            <mxPoint x="229" y="126" as="offset" />
          </mxGeometry>
        </mxCell>
        <mxCell id="9PR56mxn4MOF85WrsnWM-4" value="否" style="edgeLabel;html=1;align=center;verticalAlign=middle;resizable=0;points=[];" vertex="1" connectable="0" parent="VJmC0vJ_p1k22lX9oLKS-19">
          <mxGeometry x="52" y="669" as="geometry">
            <mxPoint x="229" y="126" as="offset" />
          </mxGeometry>
        </mxCell>
        <mxCell id="2HwmhRPb520Yy3zAajEr-1" style="edgeStyle=orthogonalEdgeStyle;rounded=0;orthogonalLoop=1;jettySize=auto;html=1;exitX=1;exitY=0.5;exitDx=0;exitDy=0;entryX=0;entryY=0.5;entryDx=0;entryDy=0;" edge="1" parent="unPt-CfE9gg_xR5_pxN_-1" source="fNqX8IiOOkzKNAeZ5xTb-0" target="2HwmhRPb520Yy3zAajEr-0">
          <mxGeometry relative="1" as="geometry" />
        </mxCell>
        <mxCell id="GPT41twSQDhy25UnQRTS-2" style="edgeStyle=orthogonalEdgeStyle;rounded=0;orthogonalLoop=1;jettySize=auto;html=1;exitX=0.5;exitY=0;exitDx=0;exitDy=0;entryX=0.5;entryY=0;entryDx=0;entryDy=0;" edge="1" parent="unPt-CfE9gg_xR5_pxN_-1" source="GPT41twSQDhy25UnQRTS-0" target="fNqX8IiOOkzKNAeZ5xTb-0">
          <mxGeometry relative="1" as="geometry" />
        </mxCell>
        <mxCell id="-reVaouew2m_lxR5b55J-1" style="edgeStyle=orthogonalEdgeStyle;rounded=0;orthogonalLoop=1;jettySize=auto;html=1;exitX=0.5;exitY=1;exitDx=0;exitDy=0;entryX=0;entryY=0.5;entryDx=0;entryDy=0;" edge="1" parent="unPt-CfE9gg_xR5_pxN_-1" source="ydiVJFpolEovmBLydGfg-0" target="-reVaouew2m_lxR5b55J-0">
          <mxGeometry relative="1" as="geometry" />
        </mxCell>
        <mxCell id="pVNrbS-83j-LOLwaV4U8-1" style="edgeStyle=orthogonalEdgeStyle;rounded=0;orthogonalLoop=1;jettySize=auto;html=1;exitX=0;exitY=0.5;exitDx=0;exitDy=0;entryX=1;entryY=0.5;entryDx=0;entryDy=0;" edge="1" parent="unPt-CfE9gg_xR5_pxN_-1" source="fusBMo20h3q3hRPO7p3z-0" target="pVNrbS-83j-LOLwaV4U8-0">
          <mxGeometry relative="1" as="geometry" />
        </mxCell>
        <mxCell id="jpQiI-CLFkEkConO15mq-3" style="edgeStyle=orthogonalEdgeStyle;rounded=0;orthogonalLoop=1;jettySize=auto;html=1;exitX=0.5;exitY=1;exitDx=0;exitDy=0;entryX=0;entryY=0.5;entryDx=0;entryDy=0;" edge="1" parent="unPt-CfE9gg_xR5_pxN_-1" source="pVNrbS-83j-LOLwaV4U8-0" target="Q03EmLQ3t6mmNia7QgSg-0">
          <mxGeometry relative="1" as="geometry" />
        </mxCell>
        <mxCell id="ljimaw0nd_LXeTOV9N75-1" style="edgeStyle=orthogonalEdgeStyle;rounded=0;orthogonalLoop=1;jettySize=auto;html=1;exitX=0;exitY=0.5;exitDx=0;exitDy=0;entryX=1;entryY=0.5;entryDx=0;entryDy=0;" edge="1" parent="unPt-CfE9gg_xR5_pxN_-1" source="jpQiI-CLFkEkConO15mq-0" target="ljimaw0nd_LXeTOV9N75-0">
          <mxGeometry relative="1" as="geometry" />
        </mxCell>
        <mxCell id="Ox77bXfGX0Dl6s76IPdl-3" style="edgeStyle=orthogonalEdgeStyle;rounded=0;orthogonalLoop=1;jettySize=auto;html=1;exitX=1;exitY=0.5;exitDx=0;exitDy=0;entryX=0;entryY=0.5;entryDx=0;entryDy=0;" edge="1" parent="unPt-CfE9gg_xR5_pxN_-1" source="ZmxKQ7ms9aLGMcQDK13I-0" target="nUlol3t4gvIzWqPROwK7-0">
          <mxGeometry relative="1" as="geometry" />
        </mxCell>
        <mxCell id="KdL9V4k7bcUCcVAulN9c-0" style="edgeStyle=orthogonalEdgeStyle;rounded=0;orthogonalLoop=1;jettySize=auto;html=1;exitX=0;exitY=0.5;exitDx=0;exitDy=0;entryX=0.5;entryY=1;entryDx=0;entryDy=0;" edge="1" parent="unPt-CfE9gg_xR5_pxN_-1" source="Ox77bXfGX0Dl6s76IPdl-0" target="ZmxKQ7ms9aLGMcQDK13I-0">
          <mxGeometry relative="1" as="geometry" />
        </mxCell>
        <mxCell id="SATEWtSXCpCv6psHAIbz-1" style="edgeStyle=orthogonalEdgeStyle;rounded=0;orthogonalLoop=1;jettySize=auto;html=1;exitX=1;exitY=0.5;exitDx=0;exitDy=0;" edge="1" parent="unPt-CfE9gg_xR5_pxN_-1" source="nDS011vUd1iVRMZf5xfw-0" target="SATEWtSXCpCv6psHAIbz-0">
          <mxGeometry relative="1" as="geometry" />
        </mxCell>
        <mxCell id="CI8F-uyJcumI6YAwOA07-1" style="edgeStyle=orthogonalEdgeStyle;rounded=0;orthogonalLoop=1;jettySize=auto;html=1;exitX=0;exitY=0.5;exitDx=0;exitDy=0;entryX=1;entryY=0.5;entryDx=0;entryDy=0;" edge="1" parent="unPt-CfE9gg_xR5_pxN_-1" source="jX8l0SNZoStM_XsevRjH-0" target="CI8F-uyJcumI6YAwOA07-0">
          <mxGeometry relative="1" as="geometry" />
        </mxCell>
        <mxCell id="uS8Wvzoy_rW2rTAMlGWx-4" style="edgeStyle=orthogonalEdgeStyle;rounded=0;orthogonalLoop=1;jettySize=auto;html=1;exitX=0;exitY=0.5;exitDx=0;exitDy=0;entryX=0.86;entryY=0.235;entryDx=0;entryDy=0;entryPerimeter=0;" edge="1" parent="unPt-CfE9gg_xR5_pxN_-1" source="nDS011vUd1iVRMZf5xfw-0">
          <mxGeometry relative="1" as="geometry">
            <mxPoint x="145" y="851" as="sourcePoint" />
            <mxPoint x="598.8" y="994.2" as="targetPoint" />
            <Array as="points">
              <mxPoint x="145" y="975" />
              <mxPoint x="599" y="975" />
            </Array>
          </mxGeometry>
        </mxCell>
      </root>
    </mxGraphModel>
  </diagram>
</mxfile>
